<?xml version="1.0" encoding="utf-8"?>
<!-- Generator: Adobe Illustrator 17.1.0, SVG Export Plug-In . SVG Version: 6.00 Build 0)  -->
<!DOCTYPE svg PUBLIC "-//W3C//DTD SVG 1.1//EN" "http://www.w3.org/Graphics/SVG/1.1/DTD/svg11.dtd">
<svg version="1.1" id="Layer_1" xmlns="http://www.w3.org/2000/svg" xmlns:xlink="http://www.w3.org/1999/xlink" x="0px" y="0px"
	 viewBox="0 0 300 225" enable-background="new 0 0 300 225" xml:space="preserve">
<radialGradient id="SVGID_1_" cx="147.2446" cy="112.675" r="117.3724" gradientTransform="matrix(1.1784 0 0 1.0715 -24.3496 -8.3931)" gradientUnits="userSpaceOnUse">
	<stop  offset="0" style="stop-color:#936FE9"/>
	<stop  offset="0.2187" style="stop-color:#9371E9"/>
	<stop  offset="0.3083" style="stop-color:#9378E9"/>
	<stop  offset="0.3742" style="stop-color:#9384E8"/>
	<stop  offset="0.4285" style="stop-color:#9396E8"/>
	<stop  offset="0.4757" style="stop-color:#93ADE7"/>
	<stop  offset="0.518" style="stop-color:#94C9E7"/>
	<stop  offset="0.5556" style="stop-color:#94E9E6"/>
	<stop  offset="0.5764" style="stop-color:#94FFE5"/>
	<stop  offset="0.6496" style="stop-color:#76EEEA"/>
	<stop  offset="0.8156" style="stop-color:#37C9F5"/>
	<stop  offset="0.937" style="stop-color:#0FB2FC"/>
	<stop  offset="1" style="stop-color:#00A9FF"/>
</radialGradient>
<rect x="-2.3" y="-0.2" fill="url(#SVGID_1_)" width="303" height="225"/>
<g opacity="0.69">
	<path fill="#FFFFFF" d="M167.8,103.5c-4.9,0-9.2,0.4-11.2,1v57.9c2,0.4,5.9,0.5,9.6,0.5c20.3,0,31.3-11.3,31.3-31.2
		C197.7,114.5,187.9,103.5,167.8,103.5z"/>
	<path fill="#FFFFFF" d="M148.3,19.5c-51.2,0-92.7,41.5-92.7,92.7s41.5,92.7,92.7,92.7c51.2,0,92.7-41.5,92.7-92.7
		S199.5,19.5,148.3,19.5z M148.3,198.5c-47.6,0-86.3-38.7-86.3-86.3s38.7-86.3,86.3-86.3c47.6,0,86.3,38.7,86.3,86.3
		S195.9,198.5,148.3,198.5z"/>
	<path fill="#FFFFFF" d="M148.3,31.8c-44.3,0-80.3,36-80.3,80.3s36,80.3,80.3,80.3s80.3-36,80.3-80.3S192.6,31.8,148.3,31.8z
		 M142.7,70.8h-32v26h30v9h-30v36h-10v-80h42V70.8z M197,160c-6.9,6.9-18.5,10.6-32.8,10.6c-6.8,0-12.5-0.3-17.5-0.9V97.5
		c6-0.9,13-1.5,20.5-1.5c13.6,0,23.5,3.2,29.9,9.1c6.5,6,10.4,14.5,10.4,26.4C207.5,143.5,203.8,153.3,197,160z"/>
</g>
</svg>
